<svg id="Layer_1" data-name="Layer 1" xmlns="http://www.w3.org/2000/svg" viewBox="0 0 349.08 340.46"><defs><style>.cls-1{fill:#0f0c0d;fill-rule:evenodd;}</style></defs><title>GitHub-Mark</title><path class="cls-1" d="M265.48,105.76a174.56,174.56,0,0,0-55.16,340.16c8.73,1.6,11.91-3.79,11.91-8.41,0-4.14-.15-15.12-.24-29.69-48.55,10.55-58.8-23.4-58.8-23.4-7.94-20.16-19.38-25.53-19.38-25.53C128,348.07,145,348.29,145,348.29c17.52,1.23,26.73,18,26.73,18,15.57,26.67,40.85,19,50.8,14.5,1.59-11.28,6.09-19,11.08-23.33-38.76-4.4-79.5-19.38-79.5-86.26,0-19.05,6.8-34.63,18-46.84-1.79-4.42-7.78-22.16,1.71-46.19,0,0,14.65-4.69,48,17.89a165.44,165.44,0,0,1,87.39,0c33.32-22.59,48-17.89,48-17.89,9.52,24,3.53,41.78,1.74,46.19,11.19,12.2,17.94,27.78,17.94,46.84,0,67.05-40.81,81.81-79.69,86.13,6.27,5.39,11.85,16,11.85,32.32,0,23.33-.21,42.16-.21,47.88,0,4.67,3.14,10.1,12,8.39a174.57,174.57,0,0,0-55.29-340.14Z" transform="translate(-90.95 -105.76)"/></svg>
